<?xml version="1.0" encoding="UTF-8"?>
<svg id="Calque_2" data-name="Calque 2" xmlns="http://www.w3.org/2000/svg" viewBox="0 0 150.44 150.49">
  <defs>
    <style>
      .cls-1 {
        fill: #1d1d1b;
        font-family: Roboto-Light, Roboto;
        font-size: 18px;
      }
    </style>
  </defs>
  <g id="Calque_1-2" data-name="Calque 1">
    <text class="cls-1" transform="translate(121.33 38.02) rotate(53.98)"><tspan x="0" y="0">E</tspan></text>
    <text class="cls-1" transform="translate(127.34 45.62) rotate(66.5)"><tspan x="0" y="0">m</tspan></text>
    <text class="cls-1" transform="translate(133.06 59.95) rotate(76.41)"><tspan x="0" y="0">i</tspan></text>
    <text class="cls-1" transform="translate(133.96 63.64) rotate(80.35)"><tspan x="0" y="0">l</tspan></text>
    <text class="cls-1" transform="translate(134.61 67.44) rotate(84.28)"><tspan x="0" y="0">i</tspan></text>
    <text class="cls-1" transform="translate(135.17 71.09) rotate(90.93)"><tspan x="0" y="0">e</tspan></text>
    <text class="cls-1" transform="translate(134.95 80.09) rotate(96.66)"><tspan x="0" y="0"> </tspan></text>
    <text class="cls-1" transform="translate(134.74 84.11) rotate(104)"><tspan x="0" y="0">C</tspan></text>
    <text class="cls-1" transform="translate(132 94.97) rotate(114)"><tspan x="0" y="0">o</tspan></text>
    <text class="cls-1" transform="translate(127.9 103.81) rotate(120.46)"><tspan x="0" y="0">l</tspan></text>
    <text class="cls-1" transform="translate(125.96 107.12) rotate(124.13)"><tspan x="0" y="0">l</tspan></text>
    <text class="cls-1" transform="translate(124 110.29) rotate(130.17)"><tspan x="0" y="0">e</tspan></text>
    <text class="cls-1" transform="translate(118.25 117.1) rotate(138.29)"><tspan x="0" y="0">y</tspan></text>
    <text class="cls-1" transform="translate(112.21 122.56) rotate(146.39)"><tspan x="0" y="0">e</tspan></text>
    <text class="cls-1" transform="translate(104.68 127.42) rotate(152.62)"><tspan x="0" y="0"> </tspan></text>
    <text class="cls-1" transform="translate(100.97 129.35) rotate(156.63)"><tspan x="0" y="0"> </tspan></text>
    <text class="cls-1" transform="translate(97.16 131.01) rotate(160.64)"><tspan x="0" y="0"> </tspan></text>
    <text class="cls-1" transform="translate(93.4 132.53) rotate(167.36)"><tspan x="0" y="0">E</tspan></text>
    <text class="cls-1" transform="translate(84.02 134.97) rotate(179.07)"><tspan x="0" y="0">m</tspan></text>
    <text class="cls-1" transform="translate(68.55 134.77) rotate(-171.72)"><tspan x="0" y="0">i</tspan></text>
    <text class="cls-1" transform="translate(64.75 134.22) rotate(-168.03)"><tspan x="0" y="0">l</tspan></text>
    <text class="cls-1" transform="translate(60.98 133.43) rotate(-164.32)"><tspan x="0" y="0">i</tspan></text>
    <text class="cls-1" transform="translate(57.37 132.58) rotate(-158.21)"><tspan x="0" y="0">e</tspan></text>
    <text class="cls-1" transform="translate(49.07 129.13) rotate(-151.94)"><tspan x="0" y="0"> </tspan></text>
    <text class="cls-1" transform="translate(45.4 127.47) rotate(-144.62)"><tspan x="0" y="0">C</tspan></text>
    <text class="cls-1" transform="translate(36.29 120.96) rotate(-134.74)"><tspan x="0" y="0">o</tspan></text>
    <text class="cls-1" transform="translate(29.53 113.93) rotate(-128.33)"><tspan x="0" y="0">l</tspan></text>
    <text class="cls-1" transform="translate(27.15 110.93) rotate(-124.69)"><tspan x="0" y="0">l</tspan></text>
    <text class="cls-1" transform="translate(24.89 107.94) rotate(-118.6)"><tspan x="0" y="0">e</tspan></text>
    <text class="cls-1" transform="translate(20.63 100.14) rotate(-110.42)"><tspan x="0" y="0">y</tspan></text>
    <text class="cls-1" transform="translate(17.74 92.54) rotate(-102.24)"><tspan x="0" y="0">e</tspan></text>
    <text class="cls-1" transform="translate(15.95 83.74) rotate(-95.98)"><tspan x="0" y="0"> </tspan></text>
    <text class="cls-1" transform="translate(15.51 79.61) rotate(-92.04)"><tspan x="0" y="0"> </tspan></text>
    <text class="cls-1" transform="translate(15.36 75.43) rotate(-87.95)"><tspan x="0" y="0"> </tspan></text>
    <text class="cls-1" transform="translate(15.5 71.27) rotate(-83.75)"><tspan x="0" y="0"> </tspan></text>
    <text class="cls-1" transform="translate(15.74 67.24) rotate(-76.89)"><tspan x="0" y="0">E</tspan></text>
    <text class="cls-1" transform="translate(17.61 57.71) rotate(-65.06)"><tspan x="0" y="0">m</tspan></text>
    <text class="cls-1" transform="translate(24.52 43.86) rotate(-56.32)"><tspan x="0" y="0">i</tspan></text>
    <text class="cls-1" transform="translate(26.64 40.66) rotate(-52.83)"><tspan x="0" y="0">l</tspan></text>
    <text class="cls-1" transform="translate(28.97 37.58) rotate(-49.32)"><tspan x="0" y="0">i</tspan></text>
    <text class="cls-1" transform="translate(31.31 34.63) rotate(-43.42)"><tspan x="0" y="0">e</tspan></text>
    <text class="cls-1" transform="translate(37.89 28.56) rotate(-37.26)"><tspan x="0" y="0"> </tspan></text>
    <text class="cls-1" transform="translate(40.95 25.92) rotate(-29.91)"><tspan x="0" y="0">C</tspan></text>
    <text class="cls-1" transform="translate(50.64 20.34) rotate(-19.98)"><tspan x="0" y="0">o</tspan></text>
    <text class="cls-1" transform="translate(59.82 17.17) rotate(-13.05)"><tspan x="0" y="0">l</tspan></text>
    <text class="cls-1" transform="translate(63.55 16.3) rotate(-8.92)"><tspan x="0" y="0">l</tspan></text>
    <text class="cls-1" transform="translate(67.14 15.54) rotate(-1.84)"><tspan x="0" y="0">e</tspan></text>
    <text class="cls-1" transform="translate(75.96 15.26) rotate(7.6)"><tspan x="0" y="0">y</tspan></text>
    <text class="cls-1" transform="translate(84.05 16.3) rotate(15.72)"><tspan x="0" y="0">e</tspan></text>
  </g>
</svg>