<?xml version="1.0" encoding="UTF-8"?>
<svg id="Calque_1" data-name="Calque 1" xmlns="http://www.w3.org/2000/svg" viewBox="0 0 18.72 21.74">
  <defs>
    <style>
      .cls-1 {
        font-family: Tenez-Regular, Tenez;
        font-size: 20px;
      }

      .cls-1, .cls-2 {
        fill: #386456;
      }

      .cls-2 {
        stroke: #386456;
        stroke-miterlimit: 10;
        stroke-width: .25px;
      }
    </style>
  </defs>
  <text class="cls-1" transform="translate(13.25 16.28) rotate(-180) scale(1 -1)"><tspan x="0" y="0">E</tspan></text>
  <path class="cls-2" d="M18.54,12.06c.46,.05-.08,4.12-.08,4.42,0,.1-.06,.14-.14,.14-.12,0-.18-.04-.2-.4-.06-.76-.16-.84-.38-.84-.64,0-1.62,1.22-4.3,1.22-.75,0-1.33-.02-1.87-.33-.81-.47-1.07-1.41-1.37-2.43-.09-.32-.24-.83-.29-1.52-.1-1.47,.39-1.71,.33-3.07-.03-.67-.15-.58-.34-2.13-.07-.55-.12-1.08,.04-1.73,.08-.34,.15-.63,.38-.92,.35-.45,.83-.6,1.52-.78,.62-.17,1.08-.3,1.68-.26,1.39,.08,3.4,1.02,3.8,1.02,.16,0,.22-.1,.28-.6,.04-.3,.08-.42,.22-.42,.1,0,.16,.04,.16,.18s-.04,.66,.1,2.16c.18,1.9,.34,2.42,.34,2.56,0,.08-.04,.14-.14,.14-.08,0-.16-.02-.2-.18l-.14-.54c-.11-.58-.53-2.3-2.07-3.44-.42-.31-1.23-.91-2.35-.88-.75,.02-1.3,.31-1.95,.65,0,0-.7,.36-1.09,.91-.05,.07-.09,.14-.09,.15-.12,.23-.11,.44-.12,.58,0,.13-.07,.47-.19,1.15-.04,.21-.06,.3-.03,.43,.04,.15,.11,.23,.1,.39,0,.09-.04,.14-.06,.21-.09,.24,.02,.38,.09,.92,.03,.22,.01,.18,.05,.46,.05,.34,.09,.46,.11,.65,.02,.16,.01,.2,0,.86-.03,.83-.02,.96-.07,1.32-.04,.31-.05,.25-.08,.49-.03,.28-.02,.62,0,1.28,0,.08,0,.2,.04,.35,0,.03,.04,.21,.12,.41,.17,.45,.61,1.14,1.03,1.31,.02,0,.16,.07,.34,.13,0,0,.14,.05,.26,.09,.2,.06,.88,.2,1.45,.19,.91,0,2.43-.03,3.55-1.13,.55-.54,.89-1.27,1.05-2.19,.24-.77,.4-.95,.5-.94Z"/>
</svg>